<svg xmlns="http://www.w3.org/2000/svg" width="504" height="97" viewBox="0 0 504 97" version="1.1"><path d="" stroke="none" fill="#080404" fill-rule="evenodd"/><path d="M 73.836 3.856 C 66.295 6.351, 61.876 9.198, 57.072 14.655 C 53.120 19.146, 53.056 19.173, 49.425 17.975 C 38.208 14.273, 24.970 22.724, 22.535 35.139 C 22.181 36.943, 21.181 37.989, 19.376 38.442 C 17.924 38.806, 14.190 41.668, 11.078 44.802 C 4.767 51.158, 2 57.644, 2 66.077 C 2 76.919, 9.650 88.640, 19.780 93.320 C 24.414 95.460, 25.342 95.500, 70.500 95.500 C 122.787 95.500, 122.269 95.570, 131.114 87.296 C 141.742 77.355, 143.679 61.227, 135.681 49.260 C 132.953 45.177, 125.559 39.020, 121.936 37.812 C 121.324 37.608, 120.414 35.246, 119.913 32.562 C 116.782 15.805, 103.447 3.815, 86.500 2.518 C 81.213 2.114, 78.114 2.441, 73.836 3.856 M 75.364 14.624 C 69.948 16.544, 64.797 21.263, 61.111 27.679 L 58.135 32.859 60.318 34.233 C 63.369 36.155, 65.762 35.360, 67.595 31.815 C 68.964 29.169, 69.551 28.860, 72.207 29.391 C 73.881 29.726, 75.869 30, 76.625 30 C 77.381 30, 78 30.850, 78 31.889 C 78 32.928, 78.835 34.810, 79.856 36.070 C 81.560 38.175, 81.968 38.256, 84.857 37.059 C 88.417 35.585, 89.494 36.133, 92.245 40.819 C 93.912 43.659, 93.908 43.892, 92.163 46.048 C 89.646 49.155, 90.508 52.633, 94.105 53.887 C 97.144 54.946, 97.506 56.220, 96.375 61.875 C 95.886 64.322, 95.235 65, 93.375 65 C 92.069 65, 90.117 65.883, 89.039 66.961 C 87.373 68.627, 87.240 69.389, 88.154 72.012 C 88.747 73.712, 89.067 75.225, 88.866 75.375 C 83.353 79.488, 82.437 79.804, 79.977 78.442 C 75.707 76.078, 73.026 76.626, 71.812 80.109 C 70.806 82.997, 70.472 83.175, 67.114 82.620 C 65.126 82.291, 62.938 82.017, 62.250 82.011 C 61.499 82.004, 61 80.652, 61 78.622 C 61 73.777, 58.850 72.291, 54.246 73.956 C 50.762 75.216, 50.536 75.156, 48.317 72.383 C 45.611 69.002, 45.495 68.050, 47.468 65.441 C 49.976 62.126, 49.378 58.969, 46 57.694 C 43.257 56.658, 43 56.162, 43 51.892 C 43 47.350, 43.095 47.205, 46.488 46.568 C 50.861 45.748, 52.539 42.986, 51.127 38.933 C 50.219 36.331, 50.377 35.866, 52.552 34.727 L 54.998 33.445 50.799 30.723 C 45.238 27.117, 40.965 27.166, 36.805 30.883 C 34.148 33.257, 33.482 34.710, 33.039 39.099 C 32.462 44.810, 33 44.261, 23.553 48.761 C 21.383 49.795, 18.233 52.338, 16.553 54.413 C 13.778 57.842, 13.500 58.845, 13.500 65.416 C 13.500 71.586, 13.893 73.241, 16.184 76.702 C 17.815 79.166, 20.612 81.602, 23.311 82.909 C 27.686 85.026, 28.456 85.055, 72.786 84.780 L 117.816 84.500 121.658 81.442 C 130.238 74.613, 132.309 63.599, 126.629 55.015 C 124.616 51.974, 122.173 50.078, 117.206 47.705 L 110.500 44.500 109.921 38 C 108.961 27.214, 103.892 19.774, 94.500 15.366 C 88.718 12.653, 81.693 12.380, 75.364 14.624 M 173.388 35.947 C 168.126 38.156, 165.057 45.612, 166.993 51.480 C 168.376 55.671, 171.643 58.121, 179 60.488 C 185.838 62.687, 188 64.521, 188 68.120 C 188 71.384, 185.660 73, 180.934 73 C 178.499 73, 176.734 71.987, 173.530 68.750 C 171.216 66.413, 168.834 63.604, 168.236 62.508 C 166.443 59.221, 165.716 61.525, 166.437 68.205 L 167.117 74.500 176.309 74.785 C 184.158 75.028, 185.983 74.770, 188.810 73.013 C 195.215 69.033, 196.852 58.377, 191.825 53.387 C 190.546 52.118, 185.900 49.824, 181.500 48.289 C 174.273 45.770, 173.469 45.228, 173.178 42.690 C 172.731 38.795, 174.580 37, 179.038 37 C 182.866 37, 184.288 38.046, 189.912 45 L 191.933 47.500 191.962 41.500 L 191.990 35.500 183.745 35.280 C 179.210 35.159, 174.550 35.459, 173.388 35.947 M 198 36 C 198 36.550, 198.675 37, 199.500 37 C 200.778 37, 201 39.667, 201 55 C 201 70.333, 200.778 73, 199.500 73 C 198.675 73, 198 73.450, 198 74 C 198 74.588, 201.480 75, 206.441 75 C 211.084 75, 215.160 74.550, 215.500 74 C 215.840 73.450, 215.416 73, 214.559 73 C 213.269 73, 213 71.532, 213 64.500 L 213 56 218 56 L 223 56 223 64.500 C 223 72.415, 222.858 73, 220.941 73 C 219.809 73, 219.160 73.450, 219.500 74 C 219.840 74.550, 223.916 75, 228.559 75 C 233.520 75, 237 74.588, 237 74 C 237 73.450, 236.325 73, 235.500 73 C 234.222 73, 234 70.333, 234 55 C 234 39.667, 234.222 37, 235.500 37 C 236.325 37, 237 36.550, 237 36 C 237 35.412, 233.520 35, 228.559 35 C 223.916 35, 219.840 35.450, 219.500 36 C 219.160 36.550, 219.809 37, 220.941 37 C 222.848 37, 223 37.590, 223 45 L 223 53 218 53 L 213 53 213 45 C 213 38.421, 213.277 37, 214.559 37 C 215.416 37, 215.840 36.550, 215.500 36 C 215.160 35.450, 211.084 35, 206.441 35 C 201.480 35, 198 35.412, 198 36 M 252 35.722 C 244.725 38.455, 240.632 45.555, 240.596 55.500 C 240.551 68.057, 247.015 75, 258.751 75 C 271.246 75, 277.357 68.456, 277.427 55 C 277.497 41.448, 271.546 34.912, 259.290 35.079 C 256.105 35.122, 252.825 35.412, 252 35.722 M 280.580 35.870 C 280.148 36.570, 280.665 37, 281.941 37 C 283.943 37, 284 37.495, 284 55 C 284 72.505, 283.943 73, 281.941 73 C 280.809 73, 280.160 73.450, 280.500 74 C 280.848 74.563, 285.677 75, 291.559 75 C 297.853 75, 302 74.603, 302 74 C 302 73.450, 300.650 73, 299 73 L 296 73 296 66.177 L 296 59.353 302.205 58.199 C 309.487 56.845, 312.782 54.116, 313.659 48.713 C 314.454 43.813, 312.453 39.287, 308.609 37.293 C 304.699 35.265, 281.676 34.097, 280.580 35.870 M 326 37.254 C 319.477 40.713, 316.556 46.377, 316.589 55.500 C 316.624 65.122, 320.178 71.229, 327.315 73.933 C 330.752 75.235, 339.387 75.323, 343.655 74.099 C 345.755 73.497, 347.163 73.563, 347.899 74.299 C 348.700 75.100, 349 73.577, 349 68.700 C 349 62.156, 347.791 59.933, 346.479 64.066 C 346.119 65.202, 344.467 67.677, 342.808 69.566 C 337.208 75.944, 331.131 73.500, 329.105 64.056 C 327.734 57.661, 327.708 52.813, 329.008 45.956 C 330.249 39.412, 332.285 37, 336.566 37 C 339.925 37, 343.959 40.621, 346.284 45.723 C 348.103 49.717, 349.104 48.184, 348.798 41.873 L 348.500 35.747 339.500 35.307 C 331.452 34.914, 330.024 35.120, 326 37.254 M 363.500 36.358 C 353.987 40.756, 349.885 55.481, 355.250 65.980 C 358.825 72.976, 361.699 74.500, 371.323 74.500 C 378.354 74.500, 379.972 74.163, 382.867 72.099 C 392.516 65.217, 392.427 44.666, 382.718 37.589 C 379.191 35.019, 367.956 34.299, 363.500 36.358 M 393.525 35.959 C 393.159 36.551, 393.769 37, 394.941 37 C 396.943 37, 397 37.495, 397 55 C 397 72.505, 396.943 73, 394.941 73 C 393.809 73, 393.160 73.450, 393.500 74 C 393.840 74.550, 395.891 75, 398.059 75 C 400.227 75, 402 74.550, 402 74 C 402 73.450, 401.325 73, 400.500 73 C 399.231 73, 399 70.611, 399 57.500 C 399 48.975, 399.192 42, 399.428 42 C 399.663 42, 403.739 49.425, 408.485 58.500 L 417.115 75 421.057 75 L 425 75 425 56 C 425 39.778, 425.219 37, 426.500 37 C 427.325 37, 428 36.550, 428 36 C 428 35.450, 426.200 35, 424 35 C 421.800 35, 420 35.450, 420 36 C 420 36.550, 420.675 37, 421.500 37 C 422.753 37, 422.997 39.018, 422.979 49.250 L 422.958 61.500 416.182 48.500 L 409.407 35.500 401.787 35.209 C 397.270 35.037, 393.906 35.342, 393.525 35.959 M 431 36 C 431 36.550, 431.675 37, 432.500 37 C 433.778 37, 434 39.667, 434 55 C 434 70.333, 433.778 73, 432.500 73 C 431.675 73, 431 73.450, 431 74 C 431 74.550, 432.800 75, 435 75 C 437.200 75, 439 74.550, 439 74 C 439 73.450, 438.325 73, 437.500 73 C 436.227 73, 436.003 70.538, 436.023 56.750 L 436.045 40.500 439.564 47 C 441.499 50.575, 445.644 58.358, 448.774 64.296 L 454.465 75.092 458.482 74.796 L 462.500 74.500 462.772 55.750 C 463.005 39.668, 463.263 37, 464.581 37 C 465.426 37, 465.840 36.550, 465.500 36 C 465.160 35.450, 463.360 35, 461.500 35 C 459.640 35, 457.840 35.450, 457.500 36 C 457.160 36.550, 457.584 37, 458.441 37 C 459.766 37, 459.997 38.766, 459.979 48.750 L 459.959 60.500 456.143 53.707 C 454.044 49.971, 451.045 44.233, 449.479 40.957 L 446.632 35 438.816 35 C 434.272 35, 431 35.419, 431 36 M 481.142 37.184 C 470.602 65.616, 467.557 73, 466.370 73 C 465.617 73, 465 73.450, 465 74 C 465 74.550, 467.025 75, 469.500 75 C 471.975 75, 474 74.550, 474 74 C 474 73.450, 473.325 73, 472.500 73 C 470.620 73, 470.628 72.447, 472.594 66.678 L 474.188 62 479.500 62 L 484.812 62 486.406 66.678 C 488.372 72.447, 488.380 73, 486.500 73 C 485.675 73, 485 73.450, 485 74 C 485 74.593, 488.667 75, 494 75 C 498.950 75, 503 74.587, 503 74.083 C 503 73.579, 502.478 72.993, 501.841 72.780 C 501.203 72.568, 497.645 64.093, 493.934 53.947 C 487.704 36.915, 486.988 35.476, 484.594 35.184 C 482.638 34.945, 481.790 35.436, 481.142 37.184 M 254.273 39.706 C 252.813 41.935, 252.500 44.633, 252.500 55 C 252.500 65.367, 252.813 68.065, 254.273 70.294 C 256.291 73.374, 260.867 73.990, 263.342 71.515 C 266.302 68.556, 266.756 44.150, 263.949 38.905 C 262.312 35.846, 256.486 36.329, 254.273 39.706 M 296 47 C 296 56.069, 296.183 57.111, 297.725 56.814 C 303.350 55.731, 303.350 38.269, 297.725 37.186 C 296.183 36.889, 296 37.931, 296 47 M 366.555 39.893 C 364.444 43.975, 364.371 64.558, 366.449 69.532 C 367.703 72.533, 368.359 73, 371.327 73 C 376.844 73, 377.465 71.375, 377.785 56.098 C 378.124 39.959, 377.395 37.662, 371.782 37.193 C 368.571 36.924, 367.915 37.263, 366.555 39.893 M 63.763 46.565 C 60.760 48.195, 58 52.713, 58 56 C 58 61.823, 63.748 67.004, 70.200 66.996 C 78.133 66.987, 83.880 58.952, 80.972 51.934 C 78.449 45.842, 69.970 43.197, 63.763 46.565 M 477.185 53.919 L 475.131 60 479.566 60 C 482.005 60, 484 59.855, 484 59.678 C 484 58.658, 480.611 49.363, 479.986 48.669 C 479.575 48.212, 478.314 50.575, 477.185 53.919" stroke="none" fill="#040404" fill-rule="evenodd"/></svg>