<?xml version="1.0" standalone="no"?>
<!DOCTYPE svg PUBLIC "-//W3C//DTD SVG 20010904//EN"
 "http://www.w3.org/TR/2001/REC-SVG-20010904/DTD/svg10.dtd">
<svg version="1.0" xmlns="http://www.w3.org/2000/svg"
 width="201.000000pt" height="72.000000pt" viewBox="0 0 201.000000 72.000000"
 preserveAspectRatio="xMidYMid meet">

<g transform="translate(0.000000,72.000000) scale(0.100000,-0.100000)"
fill="#000000" stroke="none">
<path d="M776 667 c-13 -29 -38 -83 -55 -121 -47 -104 -40 -136 31 -136 21 0
38 -3 38 -6 0 -3 -17 -43 -37 -90 -49 -113 -46 -118 75 -122 l91 -3 20 47 c12
26 21 48 21 50 0 2 -15 4 -34 4 -19 0 -38 5 -41 10 -4 6 16 60 43 120 l50 110
-58 0 c-32 0 -61 3 -63 8 -3 4 10 41 29 82 18 41 34 81 34 88 0 8 -19 12 -61
12 l-60 0 -23 -53z"/>
<path d="M1500 695 c0 -23 -4 -25 -45 -25 l-45 0 0 -65 0 -65 45 0 45 0 0 -60
0 -60 -65 0 -65 0 0 -65 0 -65 65 0 65 0 0 -145 0 -145 65 0 65 0 0 145 0 145
105 0 c131 0 145 -9 145 -98 0 -32 -5 -63 -12 -70 -7 -7 -36 -12 -65 -12 -29
0 -53 -3 -53 -6 0 -3 10 -28 22 -56 l22 -50 67 4 c79 6 115 25 135 73 16 39
19 178 4 240 -11 50 -55 91 -108 100 l-40 6 -4 78 c-3 59 -10 85 -26 108 -26
37 -87 63 -147 63 -41 0 -45 2 -45 25 0 24 -2 25 -65 25 -63 0 -65 -1 -65 -25z
m218 -217 l3 -58 -46 0 -45 0 0 61 0 60 43 -3 42 -3 3 -57z"/>
<path d="M258 413 l-3 -298 -42 -3 c-24 -2 -43 -5 -43 -8 0 -3 11 -27 25 -54
24 -47 28 -50 63 -50 56 0 105 29 119 70 8 24 12 131 12 338 l1 302 -65 0 -65
0 -2 -297z"/>
<path d="M1020 606 l0 -65 43 -3 42 -3 3 -202 2 -203 -63 0 -64 0 -27 -61
c-14 -33 -26 -62 -26 -65 0 -2 99 -4 220 -4 l220 0 0 65 0 65 -65 0 -65 0 0
205 0 205 40 0 40 0 0 65 0 65 -150 0 -150 0 0 -64z"/>
<path d="M1900 652 c-15 -12 -24 -33 -27 -65 l-6 -47 50 0 c59 0 83 20 83 68
0 54 -57 79 -100 44z"/>
<path d="M26 407 c-4 -68 -11 -140 -16 -160 -6 -30 -2 -48 23 -104 17 -37 32
-70 34 -72 7 -10 34 38 52 94 19 57 41 228 41 323 l0 42 -64 0 -63 0 -7 -123z"/>
<path d="M480 513 c1 -90 32 -318 50 -365 33 -88 42 -89 78 -9 29 64 30 73 22
132 -4 35 -11 108 -15 162 l-7 97 -64 0 c-54 0 -64 -3 -64 -17z"/>
<path d="M675 79 c-14 -33 -23 -64 -20 -69 3 -6 49 -10 101 -10 l95 0 28 63
c15 34 25 63 22 64 -3 1 -50 3 -103 6 l-97 4 -26 -58z"/>
</g>
</svg>
