<svg xmlns="http://www.w3.org/2000/svg" width="201" height="72" viewBox="0 0 201 72" version="1.1"><path d="M 25.709 0.624 C 25.319 1.014, 25 14.533, 25 30.667 L 25 60 20.500 60 C 18.025 60, 16 60.171, 16 60.379 C 16 60.588, 17.158 63.288, 18.573 66.379 L 21.147 72 26.123 72 C 32.221 72, 36.344 69.999, 37.875 66.297 C 38.688 64.332, 38.953 54.129, 38.766 32 L 38.500 0.500 32.459 0.208 C 29.136 0.047, 26.099 0.234, 25.709 0.624 M 73.644 12.486 C 70.540 19.353, 68 25.823, 68 26.864 C 68 29.409, 70.088 30.978, 74.411 31.679 C 76.385 32, 78 32.386, 78 32.538 C 78 32.689, 76.650 35.822, 75 39.500 C 71.487 47.329, 71.159 51.479, 73.934 52.965 C 74.998 53.534, 79.489 54, 83.914 54 L 91.959 54 93.851 50.250 C 94.892 48.188, 96.056 45.487, 96.439 44.250 C 97.082 42.171, 96.825 42, 93.067 42 C 90.830 42, 89 41.608, 89 41.129 C 89 40.650, 91.025 35.691, 93.500 30.109 C 95.975 24.526, 98 19.518, 98 18.980 C 98 18.441, 95.300 18, 92 18 C 88.700 18, 86 17.800, 86 17.555 C 86 17.311, 87.575 13.655, 89.500 9.431 C 91.425 5.206, 93 1.356, 93 0.875 C 93 0.394, 89.915 0, 86.144 0 L 79.287 0 73.644 12.486 M 149 2.500 C 149 4.800, 148.636 5, 144.454 5 L 139.909 5 140.204 11.750 L 140.500 18.500 144.750 18.807 L 149 19.115 149 24.557 L 149 30 142.500 30 L 136 30 136 37 L 136 44 142.500 44 L 149 44 149 58 L 149 72 156 72 L 163 72 163 58 L 163 44 173.878 44 C 182.028 44, 185.049 44.354, 185.928 45.413 C 186.633 46.262, 186.980 49.351, 186.800 53.163 L 186.500 59.500 180.198 59.799 C 173.130 60.135, 173.098 60.222, 177.149 68.250 L 179.041 72 185.770 71.996 C 193.531 71.992, 198.402 69.704, 200.087 65.271 C 200.658 63.770, 201.169 57.583, 201.224 51.521 C 201.301 42.928, 200.946 39.774, 199.613 37.206 C 197.622 33.370, 192.621 30.009, 188.897 30.004 C 186.377 30, 186.273 29.756, 185.649 22.371 C 184.584 9.773, 179.899 5, 168.599 5 C 163.293 5, 163 4.869, 163 2.500 C 163 0.071, 162.800 0, 156 0 C 149.200 0, 149 0.071, 149 2.500 M 102 12 L 102 19 106 19 L 110 19 110 38.500 L 110 58 104.094 58 L 98.189 58 95.094 64.612 C 93.392 68.249, 92 71.399, 92 71.612 C 92 71.826, 102.125 72, 114.500 72 L 137 72 137 65 L 137 58 131 58 L 125 58 125 38.500 L 125 19 129 19 L 133 19 133 12 L 133 5 117.500 5 L 102 5 102 12 M 188.557 7.223 C 187.675 8.481, 187 11.517, 187 14.223 L 187 19 191.545 19 C 199.191 19, 203.349 12.799, 199.443 7.223 C 198.289 5.574, 196.883 5, 194 5 C 191.117 5, 189.711 5.574, 188.557 7.223 M 2.669 23.250 C 2.336 26.138, 1.758 33.975, 1.386 40.667 C 0.724 52.573, 0.771 52.975, 3.577 59.417 C 5.155 63.038, 6.787 66, 7.206 66 C 8.583 66, 12.745 56.605, 13.851 51 C 14.875 45.812, 16.989 25.143, 16.997 20.250 C 17 18.135, 16.589 18, 10.138 18 L 3.275 18 2.669 23.250 M 47.358 20.704 C 47.654 22.242, 48.181 28.225, 48.530 34 C 49.459 49.384, 53.128 63.107, 56.941 65.464 C 58.109 66.185, 65.232 51.184, 64.377 49.802 C 64.048 49.269, 63.264 42.008, 62.636 33.666 L 61.493 18.500 54.157 18.204 L 46.821 17.909 47.358 20.704 M 163 24.443 L 163 30 167.552 30 L 172.105 30 171.802 24.750 L 171.500 19.500 167.250 19.193 L 163 18.885 163 24.443 M 67.050 63.550 C 65.372 67.250, 64 70.664, 64 71.138 C 64 71.612, 68.856 72, 74.792 72 L 85.583 72 88.292 66.478 C 92.433 58.033, 92.409 58, 82.082 58 C 77.177 58, 72.474 57.735, 71.632 57.412 C 70.494 56.976, 69.314 58.556, 67.050 63.550" stroke="none" fill="#ff2444" fill-rule="evenodd"/><path d="" stroke="none" fill="#fc2444" fill-rule="evenodd"/></svg>